<?xml version="1.0" encoding="UTF-8"?>
<svg xmlns="http://www.w3.org/2000/svg" xmlns:xlink="http://www.w3.org/1999/xlink" width="2835" height="2835" viewBox="0 0 2835 2835">
<path fill-rule="evenodd" fill="rgb(100%, 100%, 100%)" fill-opacity="1" d="M 0 0.351562 L 2834.648438 0.351562 L 2834.648438 2835 L 0 2835 L 0 0.351562 "/>
<path fill-rule="nonzero" fill="rgb(92.96875%, 54.881287%, 21.580505%)" fill-opacity="1" d="M 865.210938 1611.21875 C 867.402344 1612.828125 869.300781 1614.761719 870.945312 1617.03125 C 872.589844 1619.289062 873.941406 1621.851562 874.964844 1624.660156 C 876.019531 1627.511719 876.714844 1630.578125 877.117188 1633.859375 C 877.484375 1637.148438 877.554688 1640.621094 877.261719 1644.230469 C 876.972656 1647.890625 876.386719 1651.609375 875.4375 1655.410156 C 874.523438 1659.238281 873.28125 1663.078125 871.746094 1666.949219 C 870.179688 1670.820312 868.355469 1674.648438 866.269531 1678.410156 C 864.152344 1682.171875 861.816406 1685.828125 859.222656 1689.328125 C 856.667969 1692.871094 853.890625 1696.199219 850.933594 1699.339844 C 847.976562 1702.480469 844.871094 1705.359375 841.65625 1707.988281 C 838.441406 1710.660156 835.15625 1713 831.796875 1715 C 828.441406 1717.050781 825.042969 1718.730469 821.683594 1720.078125 C 818.320312 1721.429688 815 1722.421875 811.75 1723.039062 C 808.496094 1723.660156 805.359375 1723.910156 802.363281 1723.769531 C 799.335938 1723.621094 796.523438 1723.109375 793.855469 1722.230469 C 791.226562 1721.320312 788.816406 1720.078125 786.625 1718.46875 C 784.433594 1716.871094 782.5 1714.929688 780.855469 1712.671875 C 779.214844 1710.398438 777.898438 1707.851562 776.839844 1705.039062 C 775.816406 1702.191406 775.121094 1699.121094 774.722656 1695.828125 C 774.355469 1692.550781 774.28125 1689.078125 774.574219 1685.460938 C 774.828125 1681.808594 775.449219 1678.078125 776.363281 1674.25 C 777.3125 1670.449219 778.554688 1666.621094 780.089844 1662.75 C 781.621094 1658.871094 783.449219 1655.039062 785.566406 1651.28125 C 787.6875 1647.519531 790.023438 1643.871094 792.613281 1640.328125 C 795.171875 1636.820312 797.945312 1633.5 800.902344 1630.359375 C 803.859375 1627.21875 806.96875 1624.328125 810.179688 1621.660156 C 813.394531 1619.039062 816.679688 1616.699219 820.039062 1614.648438 C 823.398438 1612.640625 826.761719 1610.929688 830.152344 1609.578125 C 833.515625 1608.230469 836.839844 1607.238281 840.089844 1606.621094 C 843.339844 1606 846.476562 1605.78125 849.472656 1605.929688 C 852.46875 1606.03125 855.316406 1606.550781 857.945312 1607.460938 C 860.609375 1608.328125 863.023438 1609.578125 865.210938 1611.21875 "/>
<path fill-rule="nonzero" fill="rgb(0%, 0%, 0%)" fill-opacity="1" d="M 2112.109375 1907.34375 C 2112.109375 1912.894531 2111.851562 1918.441406 2111.300781 1923.957031 C 2110.761719 1929.472656 2109.960938 1934.949219 2108.859375 1940.425781 C 2107.800781 1945.867188 2106.449219 1951.234375 2104.839844 1956.53125 C 2103.238281 1961.863281 2101.371094 1967.050781 2099.261719 1972.199219 C 2097.140625 1977.308594 2094.761719 1982.3125 2092.128906 1987.207031 C 2089.539062 1992.097656 2086.691406 1996.886719 2083.628906 2001.484375 C 2080.558594 2006.085938 2077.230469 2010.539062 2073.730469 2014.851562 C 2070.21875 2019.125 2066.5 2023.25 2062.589844 2027.160156 C 2058.679688 2031.101562 2054.558594 2034.789062 2050.28125 2038.332031 C 2046.011719 2041.835938 2041.558594 2045.160156 2036.960938 2048.230469 C 2032.351562 2051.332031 2027.609375 2054.179688 2022.710938 2056.773438 C 2017.820312 2059.402344 2012.851562 2061.773438 2007.699219 2063.894531 C 2002.589844 2066.011719 1997.410156 2067.875 1992.070312 2069.480469 C 1986.78125 2071.085938 1981.410156 2072.4375 1976.011719 2073.535156 C 1970.570312 2074.628906 1965.089844 2075.433594 1959.570312 2075.980469 C 1955.269531 2076.410156 1950.960938 2076.660156 1946.628906 2076.746094 L 1939.359375 2076.746094 C 1935.03125 2076.660156 1930.71875 2076.410156 1926.421875 2075.980469 C 1920.898438 2075.433594 1915.421875 2074.628906 1910.019531 2073.535156 C 1904.578125 2072.4375 1899.210938 2071.085938 1893.921875 2069.480469 C 1888.621094 2067.875 1883.398438 2066.011719 1878.289062 2063.894531 C 1873.171875 2061.773438 1868.171875 2059.402344 1863.28125 2056.773438 C 1858.378906 2054.179688 1853.640625 2051.332031 1849.039062 2048.230469 C 1844.429688 2045.160156 1839.980469 2041.835938 1835.710938 2038.332031 C 1831.429688 2034.789062 1827.339844 2031.101562 1823.398438 2027.160156 C 1819.488281 2023.25 1815.769531 2019.125 1812.261719 2014.851562 C 1808.761719 2010.539062 1805.46875 2006.085938 1802.359375 2001.484375 C 1799.300781 1996.886719 1796.449219 1992.097656 1793.859375 1987.207031 C 1791.230469 1982.3125 1788.859375 1977.308594 1786.738281 1972.199219 C 1784.621094 1967.050781 1782.761719 1961.863281 1781.148438 1956.53125 C 1779.539062 1951.234375 1778.191406 1945.867188 1777.128906 1940.425781 C 1776.039062 1934.949219 1775.230469 1929.472656 1774.691406 1923.957031 C 1774.140625 1918.441406 1773.878906 1912.894531 1773.878906 1907.34375 C 1773.878906 1901.789062 1774.140625 1896.277344 1774.691406 1890.765625 C 1775.230469 1885.210938 1776.039062 1879.734375 1777.128906 1874.296875 C 1778.191406 1868.855469 1779.539062 1863.484375 1781.148438 1858.191406 C 1782.761719 1852.859375 1784.621094 1847.636719 1786.738281 1842.523438 C 1788.859375 1837.375 1791.230469 1832.371094 1793.859375 1827.480469 C 1796.449219 1822.589844 1799.300781 1817.839844 1802.359375 1813.238281 C 1805.46875 1808.601562 1808.761719 1804.140625 1812.261719 1799.871094 C 1815.769531 1795.601562 1819.488281 1791.46875 1823.398438 1787.558594 C 1827.339844 1783.621094 1831.429688 1779.898438 1835.710938 1776.390625 C 1839.980469 1772.851562 1844.429688 1769.558594 1849.039062 1766.488281 C 1853.640625 1763.390625 1858.378906 1760.539062 1863.28125 1757.949219 C 1868.171875 1755.320312 1873.171875 1752.949219 1878.289062 1750.828125 C 1883.398438 1748.710938 1888.621094 1746.851562 1893.921875 1745.199219 C 1899.210938 1743.601562 1904.578125 1742.25 1910.019531 1741.191406 C 1915.421875 1740.089844 1920.898438 1739.289062 1926.421875 1738.738281 C 1931.929688 1738.191406 1937.441406 1737.941406 1943 1737.941406 C 1948.550781 1737.941406 1954.058594 1738.191406 1959.570312 1738.738281 C 1965.089844 1739.289062 1970.570312 1740.089844 1976.011719 1741.191406 C 1981.410156 1742.25 1986.78125 1743.601562 1992.070312 1745.199219 C 1997.410156 1746.851562 2002.589844 1748.710938 2007.699219 1750.828125 C 2012.851562 1752.949219 2017.820312 1755.320312 2022.710938 1757.949219 C 2027.609375 1760.539062 2032.351562 1763.390625 2036.960938 1766.488281 C 2041.558594 1769.558594 2046.011719 1772.851562 2050.28125 1776.390625 C 2054.558594 1779.898438 2058.679688 1783.621094 2062.589844 1787.558594 C 2066.5 1791.46875 2070.21875 1795.601562 2073.730469 1799.871094 C 2077.230469 1804.140625 2080.558594 1808.601562 2083.628906 1813.238281 C 2086.691406 1817.839844 2089.539062 1822.589844 2092.128906 1827.480469 C 2094.761719 1832.371094 2097.140625 1837.375 2099.261719 1842.523438 C 2101.371094 1847.636719 2103.238281 1852.859375 2104.839844 1858.191406 C 2106.449219 1863.484375 2107.800781 1868.855469 2108.859375 1874.296875 C 2109.960938 1879.734375 2110.761719 1885.210938 2111.300781 1890.765625 C 2111.851562 1896.277344 2112.109375 1901.789062 2112.109375 1907.34375 "/>
<path fill-rule="nonzero" fill="rgb(0%, 0%, 0%)" fill-opacity="1" d="M 1122.261719 1907.34375 C 1122.261719 1912.894531 1122 1918.441406 1121.460938 1923.957031 C 1120.910156 1929.472656 1120.101562 1934.949219 1119.011719 1940.425781 C 1117.921875 1945.867188 1116.601562 1951.234375 1114.988281 1956.53125 C 1113.390625 1961.863281 1111.519531 1967.050781 1109.410156 1972.199219 C 1107.25 1977.308594 1104.910156 1982.3125 1102.289062 1987.207031 C 1099.691406 1992.097656 1096.839844 1996.886719 1093.78125 2001.484375 C 1090.671875 2006.085938 1087.378906 2010.539062 1083.878906 2014.851562 C 1080.371094 2019.125 1076.648438 2023.25 1072.738281 2027.160156 C 1068.800781 2031.101562 1064.710938 2034.789062 1060.429688 2038.332031 C 1056.160156 2041.835938 1051.710938 2045.160156 1047.109375 2048.230469 C 1042.5 2051.332031 1037.761719 2054.179688 1032.859375 2056.773438 C 1027.96875 2059.402344 1022.96875 2061.773438 1017.851562 2063.894531 C 1012.738281 2066.011719 1007.519531 2067.875 1002.230469 2069.480469 C 996.929688 2071.085938 991.5625 2072.4375 986.121094 2073.535156 C 980.71875 2074.628906 975.238281 2075.433594 969.726562 2075.980469 C 965.417969 2076.410156 961.109375 2076.660156 956.78125 2076.746094 L 949.507812 2076.746094 C 945.183594 2076.660156 940.875 2076.410156 936.566406 2075.980469 C 931.050781 2075.433594 925.574219 2074.628906 920.132812 2073.535156 C 914.730469 2072.4375 909.363281 2071.085938 904.03125 2069.480469 C 898.734375 2067.875 893.550781 2066.011719 888.4375 2063.894531 C 883.289062 2061.773438 878.285156 2059.402344 873.429688 2056.773438 C 868.535156 2054.179688 863.789062 2051.332031 859.1875 2048.230469 C 854.585938 2045.160156 850.128906 2041.835938 845.859375 2038.332031 C 841.585938 2034.789062 837.457031 2031.101562 833.550781 2027.160156 C 829.644531 2023.25 825.921875 2019.125 822.414062 2014.851562 C 818.90625 2010.539062 815.585938 2006.085938 812.515625 2001.484375 C 809.449219 1996.886719 806.601562 1992.097656 804.007812 1987.207031 C 801.378906 1982.3125 799.007812 1977.308594 796.886719 1972.199219 C 794.769531 1967.050781 792.90625 1961.863281 791.300781 1956.53125 C 789.695312 1951.234375 788.34375 1945.867188 787.28125 1940.425781 C 786.1875 1934.949219 785.382812 1929.472656 784.835938 1923.957031 C 784.289062 1918.441406 784.035156 1912.894531 784.035156 1907.34375 C 784.035156 1901.789062 784.289062 1896.277344 784.835938 1890.765625 C 785.382812 1885.210938 786.1875 1879.734375 787.28125 1874.296875 C 788.34375 1868.855469 789.695312 1863.484375 791.300781 1858.191406 C 792.90625 1852.859375 794.769531 1847.636719 796.886719 1842.523438 C 799.007812 1837.375 801.378906 1832.371094 804.007812 1827.480469 C 806.601562 1822.589844 809.449219 1817.839844 812.515625 1813.238281 C 815.585938 1808.601562 818.90625 1804.140625 822.414062 1799.871094 C 825.921875 1795.601562 829.644531 1791.46875 833.550781 1787.558594 C 837.457031 1783.621094 841.585938 1779.898438 845.859375 1776.390625 C 850.128906 1772.851562 854.585938 1769.558594 859.1875 1766.488281 C 863.789062 1763.390625 868.535156 1760.539062 873.429688 1757.949219 C 878.285156 1755.320312 883.289062 1752.949219 888.4375 1750.828125 C 893.550781 1748.710938 898.734375 1746.851562 904.03125 1745.199219 C 909.363281 1743.601562 914.730469 1742.25 920.132812 1741.191406 C 925.574219 1740.089844 931.050781 1739.289062 936.566406 1738.738281 C 942.082031 1738.191406 947.597656 1737.941406 953.148438 1737.941406 C 958.695312 1737.941406 964.210938 1738.191406 969.726562 1738.738281 C 975.238281 1739.289062 980.71875 1740.089844 986.121094 1741.191406 C 991.5625 1742.25 996.929688 1743.601562 1002.230469 1745.199219 C 1007.519531 1746.851562 1012.738281 1748.710938 1017.851562 1750.828125 C 1022.96875 1752.949219 1027.96875 1755.320312 1032.859375 1757.949219 C 1037.761719 1760.539062 1042.5 1763.390625 1047.109375 1766.488281 C 1051.710938 1769.558594 1056.160156 1772.851562 1060.429688 1776.390625 C 1064.710938 1779.898438 1068.800781 1783.621094 1072.738281 1787.558594 C 1076.648438 1791.46875 1080.371094 1795.601562 1083.878906 1799.871094 C 1087.378906 1804.140625 1090.671875 1808.601562 1093.78125 1813.238281 C 1096.839844 1817.839844 1099.691406 1822.589844 1102.289062 1827.480469 C 1104.910156 1832.371094 1107.25 1837.375 1109.410156 1842.523438 C 1111.519531 1847.636719 1113.390625 1852.859375 1114.988281 1858.191406 C 1116.601562 1863.484375 1117.921875 1868.855469 1119.011719 1874.296875 C 1120.101562 1879.734375 1120.910156 1885.210938 1121.460938 1890.765625 C 1122 1896.277344 1122.261719 1901.789062 1122.261719 1907.34375 "/>
<path fill-rule="nonzero" fill="rgb(58.006287%, 58.006287%, 58.006287%)" fill-opacity="1" d="M 1051.121094 1907.34375 C 1051.121094 1913.804688 1050.5 1920.195312 1049.261719 1926.515625 C 1047.980469 1932.832031 1046.160156 1938.96875 1043.671875 1944.917969 C 1041.230469 1950.871094 1038.199219 1956.53125 1034.621094 1961.898438 C 1031.039062 1967.269531 1026.980469 1972.234375 1022.421875 1976.765625 C 1017.890625 1981.328125 1012.929688 1985.417969 1007.589844 1988.996094 C 1002.230469 1992.574219 996.601562 1995.605469 990.648438 1998.054688 C 984.699219 2000.535156 978.5625 2002.398438 972.246094 2003.640625 C 965.964844 2004.917969 959.574219 2005.539062 953.148438 2005.539062 C 946.71875 2005.539062 940.328125 2004.917969 934.011719 2003.640625 C 927.695312 2002.398438 921.59375 2000.535156 915.644531 1998.054688 C 909.691406 1995.605469 904.03125 1992.574219 898.699219 1988.996094 C 893.328125 1985.417969 888.402344 1981.328125 883.835938 1976.765625 C 879.308594 1972.234375 875.21875 1967.269531 871.675781 1961.898438 C 868.097656 1956.53125 865.066406 1950.871094 862.617188 1944.917969 C 860.136719 1938.96875 858.273438 1932.832031 857.03125 1926.515625 C 855.753906 1920.195312 855.132812 1913.804688 855.132812 1907.34375 C 855.132812 1900.914062 855.753906 1894.523438 857.03125 1888.207031 C 858.273438 1881.890625 860.136719 1875.753906 862.617188 1869.765625 C 865.066406 1863.8125 868.097656 1858.152344 871.675781 1852.820312 C 875.21875 1847.453125 879.308594 1842.488281 883.835938 1837.921875 C 888.402344 1833.359375 893.328125 1829.300781 898.699219 1825.730469 C 904.03125 1822.148438 909.691406 1819.121094 915.644531 1816.628906 C 921.59375 1814.191406 927.695312 1812.320312 934.011719 1811.039062 C 940.328125 1809.800781 946.71875 1809.179688 953.148438 1809.179688 C 959.574219 1809.179688 965.964844 1809.800781 972.246094 1811.039062 C 978.5625 1812.320312 984.699219 1814.191406 990.648438 1816.628906 C 996.601562 1819.121094 1002.230469 1822.148438 1007.589844 1825.730469 C 1012.929688 1829.300781 1017.890625 1833.359375 1022.421875 1837.921875 C 1026.980469 1842.488281 1031.039062 1847.453125 1034.621094 1852.820312 C 1038.199219 1858.152344 1041.230469 1863.8125 1043.671875 1869.765625 C 1046.160156 1875.753906 1047.980469 1881.890625 1049.261719 1888.207031 C 1050.5 1894.523438 1051.121094 1900.914062 1051.121094 1907.34375 "/>
<path fill-rule="nonzero" fill="rgb(58.006287%, 58.006287%, 58.006287%)" fill-opacity="1" d="M 2041.011719 1907.34375 C 2041.011719 1913.804688 2040.390625 1920.195312 2039.109375 1926.515625 C 2037.871094 1932.832031 2036.011719 1938.96875 2033.519531 1944.917969 C 2031.078125 1950.871094 2028.039062 1956.53125 2024.46875 1961.898438 C 2020.921875 1967.269531 2016.839844 1972.234375 2012.308594 1976.765625 C 2007.738281 1981.328125 2002.808594 1985.417969 1997.441406 1988.996094 C 1992.109375 1992.574219 1986.449219 1995.605469 1980.5 1998.054688 C 1974.550781 2000.535156 1968.410156 2002.398438 1962.128906 2003.640625 C 1955.808594 2004.917969 1949.421875 2005.539062 1943 2005.539062 C 1936.570312 2005.539062 1930.179688 2004.917969 1923.898438 2003.640625 C 1917.578125 2002.398438 1911.441406 2000.535156 1905.488281 1998.054688 C 1899.539062 1995.605469 1893.921875 1992.574219 1888.550781 1988.996094 C 1883.21875 1985.417969 1878.25 1981.328125 1873.71875 1976.765625 C 1869.160156 1972.234375 1865.101562 1967.269531 1861.53125 1961.898438 C 1857.949219 1956.53125 1854.910156 1950.871094 1852.46875 1944.917969 C 1849.980469 1938.96875 1848.121094 1932.832031 1846.878906 1926.515625 C 1845.640625 1920.195312 1845.019531 1913.804688 1845.019531 1907.34375 C 1845.019531 1900.914062 1845.640625 1894.523438 1846.878906 1888.207031 C 1848.121094 1881.890625 1849.980469 1875.753906 1852.46875 1869.765625 C 1854.910156 1863.8125 1857.949219 1858.152344 1861.53125 1852.820312 C 1865.101562 1847.453125 1869.160156 1842.488281 1873.71875 1837.921875 C 1878.25 1833.359375 1883.21875 1829.300781 1888.550781 1825.730469 C 1893.921875 1822.148438 1899.539062 1819.121094 1905.488281 1816.628906 C 1911.441406 1814.191406 1917.578125 1812.320312 1923.898438 1811.039062 C 1930.179688 1809.800781 1936.570312 1809.179688 1943 1809.179688 C 1949.421875 1809.179688 1955.808594 1809.800781 1962.128906 1811.039062 C 1968.410156 1812.320312 1974.550781 1814.191406 1980.5 1816.628906 C 1986.449219 1819.121094 1992.109375 1822.148438 1997.441406 1825.730469 C 2002.808594 1829.300781 2007.738281 1833.359375 2012.308594 1837.921875 C 2016.839844 1842.488281 2020.921875 1847.453125 2024.46875 1852.820312 C 2028.039062 1858.152344 2031.078125 1863.8125 2033.519531 1869.765625 C 2036.011719 1875.753906 2037.871094 1881.890625 2039.109375 1888.207031 C 2040.390625 1894.523438 2041.011719 1900.914062 2041.011719 1907.34375 "/>
<path fill-rule="nonzero" fill="rgb(87.889099%, 87.889099%, 87.889099%)" fill-opacity="1" d="M 1497.699219 1785.890625 L 1468.480469 1876.960938 C 1468.480469 1876.960938 1533.890625 1878.347656 1533.890625 1876.960938 C 1533.890625 1875.570312 1552.910156 1792.859375 1552.910156 1792.859375 L 1497.699219 1785.890625 "/>
<path fill-rule="nonzero" fill="rgb(92.96875%, 54.881287%, 21.580505%)" fill-opacity="1" d="M 1783.300781 1270.550781 C 1783.300781 1276.390625 1782.941406 1282.050781 1782.238281 1287.449219 C 1781.589844 1292.859375 1780.601562 1297.640625 1779.359375 1301.769531 C 1778.078125 1305.929688 1776.621094 1309.109375 1774.980469 1311.371094 C 1773.328125 1313.601562 1771.621094 1314.730469 1769.828125 1314.730469 C 1768.039062 1314.730469 1766.320312 1313.601562 1764.679688 1311.371094 C 1763.039062 1309.109375 1761.578125 1305.929688 1760.328125 1301.769531 C 1759.058594 1297.640625 1758.109375 1292.859375 1757.410156 1287.449219 C 1756.71875 1282.050781 1756.390625 1276.390625 1756.390625 1270.550781 C 1756.390625 1264.699219 1756.71875 1259.039062 1757.410156 1253.640625 C 1758.109375 1248.230469 1759.058594 1243.449219 1760.328125 1239.328125 C 1761.578125 1235.160156 1763.039062 1231.980469 1764.679688 1229.71875 C 1766.320312 1227.488281 1768.039062 1226.359375 1769.828125 1226.359375 C 1771.621094 1226.359375 1773.328125 1227.488281 1774.980469 1229.71875 C 1776.621094 1231.980469 1778.078125 1235.160156 1779.359375 1239.328125 C 1780.601562 1243.449219 1781.589844 1248.230469 1782.238281 1253.640625 C 1782.941406 1259.039062 1783.300781 1264.699219 1783.300781 1270.550781 "/>
<path fill-rule="nonzero" fill="rgb(90.234375%, 76.5625%, 8.616638%)" fill-opacity="1" d="M 1603.78125 1289.238281 C 1605.019531 1287.378906 1655.128906 1256.121094 1659.46875 1249.910156 C 1669 1236.289062 1673.898438 1231.25 1679.121094 1216.898438 C 1681.671875 1209.820312 1686.390625 1204.710938 1693.289062 1201.640625 L 1724.398438 1187.648438 L 1728.011719 1187.910156 C 1731.078125 1188.089844 1734.078125 1188.570312 1737.039062 1189.328125 C 1739.988281 1190.101562 1742.839844 1191.160156 1745.621094 1192.46875 C 1748.359375 1193.789062 1750.980469 1195.359375 1753.429688 1197.179688 C 1755.878906 1199.011719 1758.140625 1201.050781 1760.230469 1203.28125 C 1762.269531 1205.550781 1764.128906 1207.988281 1765.699219 1210.578125 C 1767.308594 1213.21875 1768.660156 1215.949219 1769.71875 1218.800781 C 1770.78125 1221.691406 1771.578125 1224.640625 1772.089844 1227.640625 C 1772.601562 1230.671875 1772.789062 1233.699219 1772.710938 1236.769531 L 1770.78125 1314.730469 C 1770.710938 1318.089844 1770.011719 1321.308594 1768.769531 1324.410156 C 1767.53125 1327.511719 1765.769531 1330.289062 1763.511719 1332.738281 C 1761.28125 1335.21875 1758.648438 1337.191406 1755.699219 1338.691406 C 1752.699219 1340.21875 1749.558594 1341.171875 1746.238281 1341.539062 C 1743.570312 1341.828125 1741.050781 1342.628906 1738.679688 1343.910156 C 1736.339844 1345.191406 1734.300781 1346.871094 1732.578125 1348.949219 C 1730.898438 1351.070312 1729.621094 1353.371094 1728.851562 1355.960938 C 1728.050781 1358.519531 1727.761719 1361.148438 1727.980469 1363.851562 L 1731.191406 1400.800781 L 1666.878906 1432.390625 L 1600.679688 1289.871094 Z M 1603.78125 1289.238281 L 1603.78125 1289.238281 "/>
<path fill-rule="nonzero" fill="rgb(93.359375%, 72.459412%, 55.271912%)" fill-opacity="1" d="M 1332.570312 1032.601562 C 1333.988281 1030.699219 1361.78125 977.75 1361.78125 977.75 L 1434.921875 999.289062 L 1405.890625 1020.398438 C 1400.300781 1033.261719 1396.441406 1046.621094 1394.320312 1060.5 L 1391.980469 1075.800781 L 1332.570312 1032.601562 "/>
<path fill-rule="nonzero" fill="rgb(90.234375%, 76.5625%, 8.616638%)" fill-opacity="1" d="M 1539.109375 885.761719 C 1539.109375 886.421875 1539.109375 887.039062 1539.109375 887.660156 C 1532.761719 892.949219 1525.78125 897.191406 1518.148438 900.371094 L 1518.148438 944.300781 C 1518.148438 948.679688 1517.78125 953.058594 1517.050781 957.410156 C 1511.25 965.949219 1504.488281 973.691406 1496.789062 980.601562 C 1489.078125 987.5 1480.640625 993.378906 1471.519531 998.238281 C 1462.390625 1003.058594 1452.78125 1006.710938 1442.738281 1009.191406 C 1432.699219 1011.710938 1422.511719 1012.949219 1412.171875 1012.910156 C 1342.101562 1012.910156 1285.269531 955.980469 1285.269531 885.761719 C 1285.269531 815.539062 1342.101562 758.609375 1412.171875 758.609375 C 1472.539062 758.609375 1523.078125 800.820312 1535.929688 857.421875 C 1538.050781 866.730469 1539.109375 876.191406 1539.109375 885.761719 "/>
<path fill-rule="nonzero" fill="rgb(0%, 0%, 0%)" fill-opacity="1" d="M 837.164062 1760.800781 L 746.199219 1890.765625 C 743.351562 1894.851562 747.40625 1900.183594 752.117188 1898.503906 L 786.1875 1886.34375 C 831.324219 1870.203125 871.640625 1845.992188 907.132812 1813.75 L 953.148438 1771.96875 L 837.164062 1760.800781 "/>
<path fill-rule="nonzero" fill="rgb(0%, 0%, 0%)" fill-opacity="1" d="M 1888.289062 1693.859375 C 1888.289062 1693.859375 2031.148438 1664.140625 2118.351562 1809.109375 C 2118.351562 1809.109375 1908.671875 1766.378906 1828.910156 1835.144531 C 1749.121094 1903.910156 1888.289062 1693.859375 1888.289062 1693.859375 "/>
<path fill-rule="nonzero" fill="rgb(90.234375%, 76.5625%, 8.616638%)" fill-opacity="1" d="M 1941.320312 1659.199219 L 1938.359375 1700.320312 C 1936.929688 1720.550781 1933.320312 1740.460938 1927.550781 1759.921875 C 1921.808594 1779.390625 1914.039062 1798.039062 1904.25 1815.828125 C 1894.429688 1833.609375 1882.851562 1850.15625 1869.488281 1865.421875 C 1856.121094 1880.683594 1841.261719 1894.339844 1824.929688 1906.394531 L 1804.960938 1921.109375 C 1779.03125 1940.246094 1750.730469 1954.703125 1720.019531 1964.492188 C 1689.339844 1974.242188 1657.898438 1978.84375 1625.691406 1978.1875 L 1295.03125 1971.796875 C 1291.738281 1971.722656 1288.53125 1971.359375 1285.308594 1970.699219 C 1282.128906 1970.007812 1278.988281 1969.019531 1276 1967.78125 C 1272.96875 1966.5 1270.121094 1964.933594 1267.378906 1963.144531 C 1264.679688 1961.316406 1262.160156 1959.234375 1259.820312 1956.933594 C 1257.480469 1954.632812 1255.398438 1952.152344 1253.539062 1949.449219 C 1251.679688 1946.746094 1250.109375 1943.894531 1248.789062 1940.902344 C 1247.480469 1937.90625 1246.460938 1934.804688 1245.730469 1931.589844 C 1244.988281 1928.410156 1244.589844 1925.164062 1244.480469 1921.910156 C 1244.449219 1921.328125 1244.449219 1920.746094 1244.449219 1920.160156 L 1244.449219 1910.773438 C 1244.449219 1904.3125 1243.351562 1898.03125 1241.160156 1891.933594 C 1239.011719 1885.871094 1235.871094 1880.320312 1231.78125 1875.316406 C 1227.648438 1870.3125 1222.828125 1866.152344 1217.28125 1862.828125 C 1211.761719 1859.503906 1205.808594 1857.203125 1199.488281 1855.960938 L 802.949219 1777.488281 C 799.550781 1776.789062 796.375 1775.550781 793.417969 1773.761719 C 790.421875 1771.96875 787.867188 1769.738281 785.675781 1767.039062 C 783.484375 1764.378906 781.804688 1761.378906 780.636719 1758.101562 C 779.503906 1754.808594 778.957031 1751.449219 778.957031 1747.980469 C 778.957031 1747.828125 778.957031 1747.71875 778.957031 1747.578125 C 778.992188 1746.261719 779.101562 1744.988281 779.285156 1743.710938 C 793.890625 1647.960938 876.605469 1577.550781 973.269531 1578.648438 L 1399.539062 1583.390625 C 1419.878906 1583.609375 1432.550781 1605.558594 1422.621094 1623.339844 L 1398.078125 1667.199219 C 1386.25 1688.378906 1378.46875 1710.988281 1374.738281 1734.980469 C 1371.019531 1758.96875 1371.601562 1782.890625 1376.5 1806.660156 C 1378.03125 1814.078125 1380.730469 1820.980469 1384.679688 1827.441406 C 1388.621094 1833.871094 1393.511719 1839.453125 1399.429688 1844.203125 C 1405.308594 1848.914062 1411.808594 1852.53125 1418.929688 1854.976562 C 1426.050781 1857.421875 1433.390625 1858.589844 1440.949219 1858.480469 L 1656.699219 1855.269531 C 1661 1855.195312 1665.199219 1854.429688 1669.261719 1852.96875 C 1673.351562 1851.507812 1677.039062 1849.425781 1680.429688 1846.722656 C 1683.789062 1843.984375 1686.640625 1840.808594 1688.941406 1837.15625 C 1691.238281 1833.5 1692.890625 1829.558594 1693.871094 1825.359375 L 1707.308594 1768.71875 C 1716.109375 1731.550781 1719.539062 1693.859375 1717.570312 1655.699219 C 1715.640625 1617.5 1708.371094 1580.359375 1695.808594 1544.28125 L 1661.300781 1445.058594 C 1659.621094 1440.210938 1658.890625 1435.210938 1659.070312 1430.089844 C 1659.25 1424.941406 1660.351562 1420.011719 1662.390625 1415.300781 C 1664.441406 1410.589844 1667.25 1406.390625 1670.859375 1402.78125 C 1674.480469 1399.128906 1678.609375 1396.238281 1683.320312 1394.160156 L 1721.851562 1377 C 1725.710938 1375.28125 1729.730469 1374.261719 1733.96875 1373.929688 C 1738.171875 1373.558594 1742.328125 1373.929688 1746.421875 1375.019531 C 1750.550781 1376.121094 1754.339844 1377.839844 1757.808594 1380.25 C 1761.320312 1382.621094 1764.351562 1385.5 1766.871094 1388.941406 L 1932.480469 1613.78125 C 1937.261719 1620.28125 1940.441406 1627.539062 1942.011719 1635.5 C 1943.539062 1643.46875 1943.328125 1651.351562 1941.320312 1659.199219 "/>
<path fill-rule="nonzero" fill="rgb(0%, 0%, 0%)" fill-opacity="1" d="M 1062.628906 1498.671875 L 1409.359375 1498.671875 C 1413.050781 1498.671875 1416.628906 1499.398438 1420.03125 1500.828125 C 1423.460938 1502.21875 1426.449219 1504.261719 1429.078125 1506.851562 C 1431.679688 1509.480469 1433.679688 1512.511719 1435.109375 1515.910156 C 1436.53125 1519.339844 1437.21875 1522.878906 1437.21875 1526.609375 L 1437.21875 1563.710938 C 1437.21875 1567.441406 1436.53125 1570.980469 1435.109375 1574.410156 C 1433.679688 1577.808594 1431.679688 1580.839844 1429.078125 1583.46875 C 1426.449219 1586.058594 1423.460938 1588.101562 1420.03125 1589.488281 C 1416.628906 1590.921875 1413.050781 1591.648438 1409.359375 1591.648438 L 1062.628906 1591.648438 C 1058.941406 1591.648438 1055.398438 1590.921875 1051.960938 1589.488281 C 1048.570312 1588.101562 1045.539062 1586.058594 1042.941406 1583.46875 C 1040.308594 1580.839844 1038.300781 1577.808594 1036.921875 1574.410156 C 1035.488281 1570.980469 1034.800781 1567.441406 1034.800781 1563.710938 L 1034.800781 1526.609375 C 1034.800781 1522.878906 1035.488281 1519.339844 1036.921875 1515.910156 C 1038.300781 1512.511719 1040.308594 1509.480469 1042.941406 1506.851562 C 1045.539062 1504.261719 1048.570312 1502.21875 1051.960938 1500.828125 C 1055.398438 1499.398438 1058.941406 1498.671875 1062.628906 1498.671875 "/>
<path fill-rule="nonzero" fill="rgb(0%, 0%, 0%)" fill-opacity="1" d="M 743.390625 1564.988281 L 1069.460938 1564.988281 C 1071.101562 1564.988281 1072.671875 1565.320312 1074.171875 1565.941406 C 1075.699219 1566.558594 1077.019531 1567.441406 1078.179688 1568.601562 C 1079.320312 1569.769531 1080.230469 1571.089844 1080.851562 1572.621094 C 1081.46875 1574.121094 1081.800781 1575.691406 1081.800781 1577.328125 L 1081.800781 1579.300781 C 1081.800781 1580.910156 1081.46875 1582.480469 1080.851562 1584.019531 C 1080.230469 1585.511719 1079.320312 1586.859375 1078.179688 1588.03125 C 1077.019531 1589.160156 1075.699219 1590.078125 1074.171875 1590.699219 C 1072.671875 1591.320312 1071.101562 1591.648438 1069.460938 1591.648438 L 743.390625 1591.648438 C 741.746094 1591.648438 740.175781 1591.320312 738.675781 1590.699219 C 737.179688 1590.078125 735.832031 1589.160156 734.660156 1588.03125 C 733.527344 1586.859375 732.617188 1585.511719 731.996094 1584.019531 C 731.371094 1582.480469 731.082031 1580.910156 731.082031 1579.300781 L 731.082031 1577.328125 C 731.082031 1575.691406 731.371094 1574.121094 731.996094 1572.621094 C 732.617188 1571.089844 733.527344 1569.769531 734.660156 1568.601562 C 735.832031 1567.441406 737.179688 1566.558594 738.675781 1565.941406 C 740.175781 1565.320312 741.746094 1564.988281 743.390625 1564.988281 "/>
<path fill-rule="nonzero" fill="rgb(37.646484%, 37.646484%, 37.646484%)" fill-opacity="1" d="M 954.824219 1848.988281 L 1194.53125 1848.988281 C 1198.179688 1848.988281 1201.789062 1849.316406 1205.339844 1850.046875 C 1208.921875 1850.742188 1212.378906 1851.800781 1215.738281 1853.1875 C 1219.140625 1854.609375 1222.320312 1856.328125 1225.351562 1858.335938 C 1228.378906 1860.382812 1231.191406 1862.683594 1233.75 1865.238281 C 1236.339844 1867.832031 1238.640625 1870.644531 1240.648438 1873.675781 C 1242.691406 1876.703125 1244.410156 1879.917969 1245.800781 1883.277344 C 1247.191406 1886.671875 1248.25 1890.144531 1248.941406 1893.722656 C 1249.671875 1897.300781 1250 1900.914062 1250 1904.566406 L 1250 1907.816406 C 1250 1911.46875 1249.671875 1915.085938 1248.941406 1918.664062 C 1248.25 1922.242188 1247.191406 1925.710938 1245.800781 1929.070312 C 1244.410156 1932.46875 1242.691406 1935.644531 1240.648438 1938.675781 C 1238.640625 1941.742188 1236.339844 1944.519531 1233.75 1947.109375 C 1231.191406 1949.703125 1228.378906 1952.003906 1225.351562 1954.011719 C 1222.320312 1956.058594 1219.140625 1957.773438 1215.738281 1959.160156 C 1212.378906 1960.546875 1208.921875 1961.609375 1205.339844 1962.335938 C 1201.789062 1963.03125 1198.179688 1963.398438 1194.53125 1963.398438 L 954.824219 1963.398438 C 951.171875 1963.398438 947.558594 1963.03125 943.980469 1962.335938 C 940.4375 1961.609375 936.96875 1960.546875 933.570312 1959.160156 C 930.210938 1957.773438 927.039062 1956.058594 924.007812 1954.011719 C 920.972656 1952.003906 918.164062 1949.703125 915.570312 1947.109375 C 913.015625 1944.519531 910.714844 1941.742188 908.667969 1938.675781 C 906.660156 1935.644531 904.941406 1932.46875 903.554688 1929.070312 C 902.167969 1925.710938 901.109375 1922.242188 900.414062 1918.664062 C 899.683594 1915.085938 899.320312 1911.46875 899.320312 1907.816406 L 899.320312 1904.566406 C 899.320312 1900.914062 899.683594 1897.300781 900.414062 1893.722656 C 901.109375 1890.144531 902.167969 1886.671875 903.554688 1883.277344 C 904.941406 1879.917969 906.660156 1876.703125 908.667969 1873.675781 C 910.714844 1870.644531 913.015625 1867.832031 915.570312 1865.238281 C 918.164062 1862.683594 920.972656 1860.382812 924.007812 1858.335938 C 927.039062 1856.328125 930.210938 1854.609375 933.570312 1853.1875 C 936.96875 1851.800781 940.4375 1850.742188 943.980469 1850.046875 C 947.558594 1849.316406 951.171875 1848.988281 954.824219 1848.988281 "/>
<path fill-rule="nonzero" fill="rgb(0%, 15.281677%, 24.705505%)" fill-opacity="1" d="M 1217.101562 1373.78125 L 1217.789062 1466.28125 C 1217.210938 1469.421875 1216.988281 1472.558594 1217.128906 1475.738281 C 1217.238281 1478.878906 1217.71875 1482.019531 1218.519531 1485.050781 C 1219.320312 1488.121094 1220.460938 1491.078125 1221.921875 1493.890625 C 1223.378906 1496.699219 1225.128906 1499.328125 1227.140625 1501.738281 C 1229.179688 1504.191406 1231.449219 1506.378906 1233.929688 1508.308594 C 1236.449219 1510.25 1239.148438 1511.859375 1242 1513.210938 C 1244.890625 1514.558594 1247.839844 1515.578125 1250.949219 1516.238281 C 1254.019531 1516.929688 1257.160156 1517.300781 1260.300781 1517.261719 L 1511.03125 1517.261719 L 1467.679688 1791 C 1467.210938 1793.960938 1467.351562 1796.878906 1468.121094 1799.761719 C 1468.890625 1802.648438 1470.199219 1805.238281 1472.101562 1807.578125 C 1473.960938 1809.910156 1476.230469 1811.78125 1478.859375 1813.160156 C 1481.519531 1814.511719 1484.328125 1815.28125 1487.289062 1815.460938 L 1545.5 1818.96875 C 1548.421875 1819.148438 1551.308594 1818.820312 1554.078125 1817.949219 C 1556.890625 1817.070312 1559.449219 1815.71875 1561.75 1813.929688 C 1564.089844 1812.140625 1565.988281 1809.988281 1567.519531 1807.46875 C 1569.050781 1804.949219 1570.078125 1802.238281 1570.621094 1799.359375 L 1628.398438 1493.199219 C 1636.5 1450.25 1606.589844 1409.421875 1563.28125 1404.308594 L 1217.101562 1373.78125 "/>
<path fill-rule="nonzero" fill="rgb(90.234375%, 76.5625%, 8.616638%)" fill-opacity="1" d="M 1353.308594 1020.46875 C 1351.441406 1018.980469 1349.511719 1017.699219 1347.390625 1016.601562 C 1345.269531 1015.539062 1343.078125 1014.699219 1340.820312 1014.078125 C 1338.519531 1013.460938 1336.21875 1013.101562 1333.839844 1012.949219 C 1331.46875 1012.839844 1329.128906 1012.949219 1326.789062 1013.351562 C 1324.460938 1013.71875 1322.191406 1014.339844 1320 1015.179688 C 1317.78125 1016.019531 1315.691406 1017.109375 1313.71875 1018.390625 C 1311.710938 1019.671875 1309.921875 1021.171875 1308.238281 1022.851562 C 1306.558594 1024.53125 1305.101562 1026.351562 1303.828125 1028.359375 C 1278.339844 1067.730469 1254.75 1095.988281 1236.558594 1140.398438 C 1228.421875 1160.230469 1202.820312 1309.148438 1191.058594 1379.039062 C 1190.691406 1381.269531 1190.550781 1383.5 1190.660156 1385.71875 C 1190.800781 1387.949219 1191.128906 1390.179688 1191.71875 1392.328125 C 1192.339844 1394.488281 1193.140625 1396.570312 1194.199219 1398.539062 C 1195.21875 1400.550781 1196.460938 1402.378906 1197.921875 1404.089844 C 1199.351562 1405.808594 1200.988281 1407.339844 1202.738281 1408.730469 C 1204.539062 1410.078125 1206.429688 1411.210938 1208.480469 1412.160156 C 1210.519531 1413.109375 1212.601562 1413.839844 1214.800781 1414.320312 C 1216.988281 1414.789062 1219.210938 1415.050781 1221.441406 1415.050781 L 1361.738281 1415.050781 C 1364.230469 1415.050781 1366.640625 1414.609375 1368.941406 1413.699219 C 1371.269531 1412.820312 1373.320312 1411.511719 1375.179688 1409.859375 C 1377.011719 1408.179688 1378.46875 1406.25 1379.601562 1404.019531 C 1380.691406 1401.789062 1381.390625 1399.460938 1381.609375 1396.96875 L 1412.070312 1081.859375 C 1412.429688 1077.949219 1411.878906 1074.148438 1410.351562 1070.539062 C 1408.851562 1066.890625 1406.550781 1063.820312 1403.480469 1061.339844 L 1353.308594 1020.46875 "/>
<path fill-rule="nonzero" fill="rgb(93.359375%, 72.459412%, 55.271912%)" fill-opacity="1" d="M 1315.578125 1201.890625 L 1344.46875 1265.910156 C 1348.160156 1274.121094 1353.640625 1280.921875 1360.871094 1286.289062 C 1368.101562 1291.621094 1376.199219 1294.871094 1385.121094 1296 L 1541.921875 1315.898438 L 1554.628906 1328.28125 C 1561.019531 1334.488281 1568.429688 1338.910156 1576.898438 1341.609375 L 1610.980469 1352.378906 C 1612.550781 1353.191406 1614.230469 1353.699219 1616.019531 1353.839844 C 1617.769531 1353.988281 1619.519531 1353.808594 1621.199219 1353.261719 C 1622.921875 1352.710938 1624.421875 1351.871094 1625.761719 1350.699219 C 1627.121094 1349.539062 1628.210938 1348.148438 1629.019531 1346.578125 C 1631.640625 1341.28125 1633.25 1335.691406 1633.800781 1329.78125 C 1634.351562 1323.898438 1633.839844 1318.089844 1632.230469 1312.398438 C 1630.621094 1306.738281 1628.070312 1301.519531 1624.519531 1296.769531 C 1620.941406 1292.050781 1616.671875 1288.109375 1611.671875 1284.96875 L 1590.128906 1271.5 C 1587.28125 1269.710938 1584.171875 1268.789062 1580.808594 1268.679688 L 1544.808594 1267.660156 C 1543.710938 1267.621094 1542.648438 1267.480469 1541.589844 1267.21875 L 1405.488281 1235.929688 C 1401.441406 1235.019531 1397.929688 1233.078125 1394.96875 1230.160156 C 1392.019531 1227.238281 1390.039062 1223.730469 1389.058594 1219.679688 L 1382.988281 1194.480469 L 1315.578125 1201.890625 "/>
<path fill-rule="nonzero" fill="rgb(24.31488%, 14.109802%, 13.719177%)" fill-opacity="1" d="M 1614.039062 1343.761719 C 1614.039062 1346.210938 1613.570312 1348.578125 1612.621094 1350.851562 C 1611.671875 1353.109375 1610.359375 1355.121094 1608.601562 1356.878906 C 1606.890625 1358.589844 1604.878906 1359.941406 1602.609375 1360.890625 C 1600.351562 1361.839844 1597.980469 1362.28125 1595.53125 1362.28125 C 1593.050781 1362.28125 1590.710938 1361.839844 1588.449219 1360.890625 C 1586.179688 1359.941406 1584.171875 1358.589844 1582.421875 1356.878906 C 1580.699219 1355.121094 1579.351562 1353.109375 1578.398438 1350.851562 C 1577.488281 1348.578125 1577.019531 1346.210938 1577.019531 1343.761719 C 1577.019531 1341.28125 1577.488281 1338.910156 1578.398438 1336.640625 C 1579.351562 1334.378906 1580.699219 1332.371094 1582.421875 1330.621094 C 1584.171875 1328.898438 1586.179688 1327.550781 1588.449219 1326.601562 C 1590.710938 1325.648438 1593.050781 1325.210938 1595.53125 1325.210938 C 1597.980469 1325.210938 1600.351562 1325.648438 1602.609375 1326.601562 C 1604.878906 1327.550781 1606.890625 1328.898438 1608.601562 1330.621094 C 1610.359375 1332.371094 1611.671875 1334.378906 1612.621094 1336.640625 C 1613.570312 1338.910156 1614.039062 1341.28125 1614.039062 1343.761719 "/>
<path fill-rule="nonzero" fill="rgb(72.851562%, 61.914062%, 7.054138%)" fill-opacity="1" d="M 1249.160156 1891.75 C 1245.871094 1886.234375 1241.820312 1881.453125 1236.929688 1877.324219 C 1238.128906 1852.203125 1237.289062 1825.25 1232.730469 1798.78125 C 1225.058594 1754.589844 1206.839844 1711.789062 1169.988281 1681.121094 C 1215.308594 1712.050781 1236.710938 1759.300781 1245.210938 1808.199219 C 1250.109375 1836.425781 1250.730469 1865.238281 1249.160156 1891.75 "/>
<path fill-rule="nonzero" fill="rgb(90.234375%, 80.859375%, 33.325195%)" fill-opacity="1" d="M 1236.929688 1877.324219 C 1229.621094 1871.226562 1221.300781 1867.246094 1211.980469 1865.382812 L 815.4375 1786.871094 C 812.039062 1786.210938 808.863281 1784.96875 805.90625 1783.179688 C 802.910156 1781.390625 800.355469 1779.171875 798.164062 1776.460938 C 795.976562 1773.761719 794.296875 1770.800781 793.125 1767.519531 C 791.996094 1764.230469 791.445312 1760.871094 791.445312 1757.398438 C 791.445312 1757.261719 791.445312 1757.109375 791.445312 1757 L 791.738281 1757 C 836.507812 1700.289062 928.644531 1622.800781 1087.171875 1649.488281 C 1121.058594 1655.191406 1148.261719 1666.25 1169.988281 1681.078125 C 1206.839844 1711.75 1225.019531 1754.589844 1232.691406 1798.738281 C 1237.289062 1825.25 1238.128906 1852.203125 1236.929688 1877.324219 "/>
<path fill-rule="nonzero" fill="rgb(0%, 0%, 0%)" fill-opacity="1" d="M 1247.410156 1879.589844 C 1247.328125 1880.683594 1247.300781 1881.816406 1247.21875 1882.949219 L 1245.179688 1917.492188 L 1244.449219 1916.289062 L 1244.449219 1910.8125 C 1244.449219 1900.585938 1241.851562 1891.09375 1236.671875 1882.328125 C 1238.238281 1855.816406 1237.621094 1827 1232.730469 1798.78125 L 1243.648438 1800.019531 L 1243.679688 1800.019531 C 1247.660156 1824.339844 1248.898438 1850.851562 1247.410156 1879.589844 "/>
<path fill-rule="nonzero" fill="rgb(0%, 0%, 0%)" fill-opacity="1" d="M 1236.671875 1882.328125 C 1232.621094 1875.464844 1227.359375 1869.765625 1220.859375 1865.164062 C 1214.390625 1860.5625 1207.269531 1857.496094 1199.488281 1855.960938 L 802.949219 1777.488281 C 799.550781 1776.789062 796.375 1775.550781 793.417969 1773.761719 C 790.421875 1771.96875 787.867188 1769.738281 785.675781 1767.039062 C 783.484375 1764.378906 781.804688 1761.378906 780.636719 1758.101562 C 779.503906 1754.808594 778.957031 1751.449219 778.957031 1747.980469 C 778.957031 1747.828125 778.957031 1747.691406 778.957031 1747.578125 L 779.246094 1747.609375 L 1232.730469 1798.78125 C 1237.621094 1827 1238.238281 1855.816406 1236.671875 1882.328125 "/>
<path fill-rule="nonzero" fill="rgb(0%, 0%, 0%)" fill-opacity="1" d="M 1772.058594 1753.089844 L 1723.53125 1842.816406 C 1716.179688 1856.363281 1707.199219 1868.632812 1696.5 1879.664062 C 1685.769531 1890.726562 1673.789062 1900.074219 1660.5 1907.78125 C 1647.199219 1915.484375 1633.109375 1921.253906 1618.210938 1925.054688 C 1603.339844 1928.851562 1588.230469 1930.566406 1572.851562 1930.203125 L 1244.480469 1921.910156 C 1244.449219 1921.328125 1244.449219 1920.78125 1244.449219 1920.160156 L 1244.449219 1916.289062 L 1245.179688 1917.53125 L 1247.21875 1882.984375 C 1248.980469 1853.003906 1247.808594 1825.289062 1243.679688 1800.050781 L 1378.910156 1815.28125 C 1381.171875 1821.710938 1384.351562 1827.589844 1388.46875 1832.988281 C 1392.558594 1838.398438 1397.421875 1843.035156 1402.96875 1846.90625 C 1408.558594 1850.777344 1414.578125 1853.734375 1421.050781 1855.707031 C 1427.550781 1857.679688 1434.160156 1858.628906 1440.949219 1858.519531 L 1656.699219 1855.304688 C 1661 1855.234375 1665.199219 1854.464844 1669.261719 1853.003906 C 1673.308594 1851.542969 1677.039062 1849.425781 1680.398438 1846.722656 C 1683.789062 1844.019531 1686.609375 1840.84375 1688.941406 1837.191406 C 1691.238281 1833.5 1692.890625 1829.601562 1693.871094 1825.359375 L 1707.308594 1768.761719 C 1716.109375 1731.578125 1719.539062 1693.898438 1717.570312 1655.699219 C 1715.640625 1617.539062 1708.371094 1580.398438 1695.839844 1544.320312 L 1661.300781 1445.058594 C 1659.621094 1440.238281 1658.890625 1435.238281 1659.070312 1430.089844 C 1659.25 1424.980469 1660.351562 1420.050781 1662.390625 1415.339844 C 1664.441406 1410.628906 1667.25 1406.429688 1670.859375 1402.78125 C 1674.480469 1399.128906 1678.609375 1396.28125 1683.320312 1394.199219 L 1721.851562 1377.03125 C 1726.769531 1374.808594 1732 1373.75 1737.441406 1373.820312 L 1720.351562 1415.089844 L 1776.578125 1530.078125 C 1785.089844 1547.5 1791.449219 1565.679688 1795.648438 1584.640625 C 1799.808594 1603.550781 1801.710938 1622.71875 1801.308594 1642.109375 C 1800.898438 1661.539062 1798.238281 1680.609375 1793.308594 1699.371094 C 1788.339844 1718.109375 1781.261719 1736.039062 1772.058594 1753.089844 "/>
<path fill-rule="nonzero" fill="rgb(87.889099%, 87.889099%, 87.889099%)" fill-opacity="1" d="M 1646.140625 1892.515625 C 1646.140625 1893.902344 1645.890625 1895.257812 1645.339844 1896.53125 C 1644.828125 1897.808594 1644.058594 1898.945312 1643.070312 1899.929688 C 1642.089844 1900.914062 1640.988281 1901.644531 1639.71875 1902.191406 C 1638.441406 1902.703125 1637.089844 1902.996094 1635.699219 1902.996094 L 1460.191406 1902.996094 C 1458.371094 1902.996094 1456.761719 1902.339844 1455.449219 1901.023438 C 1454.128906 1899.710938 1453.480469 1898.105469 1453.480469 1896.242188 L 1453.480469 1859.980469 C 1453.480469 1856.875 1454.101562 1853.882812 1455.269531 1851.03125 C 1456.46875 1848.148438 1458.148438 1845.589844 1460.339844 1843.402344 C 1462.53125 1841.210938 1465.089844 1839.492188 1467.941406 1838.324219 C 1470.820312 1837.117188 1473.820312 1836.535156 1476.921875 1836.535156 L 1481.699219 1836.535156 C 1487.21875 1848.183594 1498.761719 1856.183594 1512.089844 1856.183594 C 1525.421875 1856.183594 1536.960938 1848.183594 1542.46875 1836.535156 L 1590.230469 1836.535156 C 1593.921875 1836.535156 1597.539062 1836.898438 1601.148438 1837.59375 C 1604.730469 1838.324219 1608.238281 1839.382812 1611.628906 1840.808594 C 1615.03125 1842.195312 1618.238281 1843.910156 1621.308594 1845.953125 C 1624.339844 1848 1627.148438 1850.339844 1629.75 1852.929688 C 1632.378906 1855.523438 1634.679688 1858.371094 1636.71875 1861.402344 C 1638.769531 1864.472656 1640.480469 1867.683594 1641.871094 1871.117188 C 1643.289062 1874.515625 1644.351562 1877.984375 1645.050781 1881.597656 C 1645.78125 1885.210938 1646.140625 1888.863281 1646.140625 1892.515625 "/>
<path fill-rule="nonzero" fill="rgb(24.31488%, 14.109802%, 13.719177%)" fill-opacity="1" d="M 1553.96875 871.339844 C 1550.210938 876.78125 1545.871094 881.710938 1540.898438 886.089844 C 1535.929688 890.46875 1530.558594 894.230469 1524.679688 897.300781 C 1518.839844 900.371094 1512.710938 902.699219 1506.28125 904.28125 C 1499.851562 905.878906 1493.351562 906.679688 1486.710938 906.679688 C 1485.578125 906.679688 1484.410156 906.648438 1483.269531 906.609375 L 1430.621094 904.351562 C 1428.539062 904.28125 1427.179688 903.25 1426.53125 901.28125 C 1425.871094 899.308594 1426.308594 897.660156 1427.910156 896.351562 L 1442.699219 884.078125 C 1453.070312 875.460938 1464.578125 868.851562 1477.25 864.25 C 1489.960938 859.691406 1503.03125 857.390625 1516.511719 857.390625 L 1546.671875 857.390625 C 1550.25 857.390625 1552.878906 858.960938 1554.519531 862.128906 C 1556.199219 865.308594 1556.019531 868.378906 1553.96875 871.339844 "/>
<path fill-rule="nonzero" fill="rgb(93.359375%, 72.459412%, 55.271912%)" fill-opacity="1" d="M 1518.109375 900.398438 L 1518.109375 944.300781 C 1518.109375 949.589844 1517.601562 954.820312 1516.578125 960 C 1515.558594 965.148438 1514.058594 970.191406 1512.050781 975.078125 C 1510.011719 979.941406 1507.558594 984.578125 1504.640625 988.960938 C 1501.679688 993.378906 1498.359375 997.429688 1494.628906 1001.160156 C 1490.910156 1004.878906 1486.851562 1008.238281 1482.46875 1011.160156 C 1478.089844 1014.078125 1473.488281 1016.570312 1468.589844 1018.570312 C 1463.738281 1020.621094 1458.699219 1022.121094 1453.550781 1023.140625 C 1448.359375 1024.199219 1443.140625 1024.710938 1437.878906 1024.671875 L 1412.171875 1024.671875 L 1412.171875 913.839844 C 1412.171875 912.050781 1412.539062 910.339844 1413.199219 908.691406 C 1413.890625 907.050781 1414.839844 905.589844 1416.121094 904.308594 C 1417.359375 903.070312 1418.820312 902.078125 1420.460938 901.429688 C 1422.109375 900.730469 1423.820312 900.398438 1425.609375 900.398438 L 1518.109375 900.398438 "/>
<path fill-rule="nonzero" fill="rgb(24.31488%, 14.109802%, 13.719177%)" fill-opacity="1" d="M 1437.519531 1024.308594 L 1437.519531 1024.558594 C 1437.550781 1026.859375 1437.039062 1029.058594 1436.019531 1031.140625 C 1435 1033.21875 1433.570312 1034.941406 1431.75 1036.320312 C 1429.921875 1037.710938 1427.878906 1038.621094 1425.609375 1039.058594 C 1423.351562 1039.460938 1421.121094 1039.351562 1418.890625 1038.730469 L 1410.601562 1036.359375 C 1401.578125 1032.851562 1395.011719 1026.679688 1390.921875 1017.878906 C 1389.859375 1015.539062 1388.730469 1012.808594 1387.738281 1010.578125 C 1395.050781 1011.890625 1402.570312 1012.949219 1410.238281 1012.949219 C 1410.898438 1012.949219 1411.550781 1012.949219 1412.171875 1012.949219 C 1414.070312 1016.488281 1416.988281 1018.789062 1420.898438 1019.851562 L 1437.519531 1024.308594 "/>
<path fill-rule="nonzero" fill="rgb(37.646484%, 37.646484%, 37.646484%)" fill-opacity="1" d="M 1621.160156 1845.882812 C 1601.808594 1857.640625 1596.988281 1883.167969 1596.988281 1883.167969 L 1453.511719 1884.628906 L 1453.511719 1859.980469 C 1453.511719 1856.875 1454.101562 1853.882812 1455.300781 1851.03125 C 1456.46875 1848.148438 1458.148438 1845.589844 1460.378906 1843.402344 C 1462.570312 1841.210938 1465.089844 1839.492188 1467.96875 1838.324219 C 1470.820312 1837.117188 1473.820312 1836.535156 1476.921875 1836.535156 L 1481.699219 1836.535156 C 1487.21875 1848.183594 1498.761719 1856.183594 1512.089844 1856.183594 C 1525.421875 1856.183594 1536.960938 1848.183594 1542.46875 1836.535156 L 1590.230469 1836.535156 C 1601.480469 1836.496094 1611.820312 1839.636719 1621.160156 1845.882812 "/>
<path fill-rule="nonzero" fill="rgb(72.851562%, 61.914062%, 7.054138%)" fill-opacity="1" d="M 1318.578125 1221.609375 L 1321.609375 1220.300781 C 1343.808594 1210.578125 1366.820312 1207.921875 1390.628906 1212.339844 C 1391.578125 1212.519531 1392.53125 1212.480469 1393.480469 1212.160156 C 1394.390625 1211.859375 1395.191406 1211.351562 1395.890625 1210.660156 C 1396.578125 1209.960938 1397.019531 1209.121094 1397.28125 1208.171875 C 1397.570312 1207.230469 1397.570312 1206.269531 1397.351562 1205.328125 L 1377.769531 1119.109375 C 1375.730469 1110.160156 1371.640625 1102.269531 1365.539062 1095.480469 C 1359.410156 1088.648438 1352.03125 1083.800781 1343.339844 1080.839844 C 1338.851562 1079.300781 1334.210938 1078.429688 1329.429688 1078.210938 C 1324.679688 1078.03125 1319.96875 1078.5 1315.359375 1079.628906 C 1310.730469 1080.800781 1306.339844 1082.550781 1302.261719 1084.960938 C 1298.128906 1087.371094 1294.441406 1090.328125 1291.148438 1093.800781 C 1285.269531 1100.039062 1281.261719 1107.351562 1279.101562 1115.640625 C 1276.949219 1123.960938 1276.910156 1132.289062 1279.03125 1140.621094 L 1296.78125 1210.910156 C 1297.328125 1213.179688 1298.351562 1215.21875 1299.851562 1217.050781 C 1301.308594 1218.878906 1303.101562 1220.339844 1305.210938 1221.359375 C 1307.300781 1222.378906 1309.519531 1222.929688 1311.859375 1222.960938 C 1314.199219 1223.039062 1316.460938 1222.558594 1318.578125 1221.609375 "/>
<path fill-rule="nonzero" fill="rgb(92.96875%, 54.881287%, 21.580505%)" fill-opacity="1" d="M 1900.269531 1548.960938 C 1903.738281 1554.398438 1906.730469 1559.839844 1909.25 1565.320312 C 1911.808594 1570.800781 1913.671875 1575.839844 1914.839844 1580.511719 C 1916.050781 1585.148438 1916.480469 1589.050781 1916.148438 1592.191406 C 1915.828125 1595.339844 1914.800781 1597.488281 1913.011719 1598.621094 C 1911.230469 1599.789062 1908.808594 1599.859375 1905.820312 1598.839844 C 1902.859375 1597.820312 1899.5 1595.769531 1895.78125 1592.738281 C 1892.050781 1589.710938 1888.261719 1585.910156 1884.351562 1581.308594 C 1880.441406 1576.75 1876.75 1571.738281 1873.28125 1566.300781 C 1869.808594 1560.859375 1866.78125 1555.421875 1864.261719 1549.949219 C 1861.738281 1544.5 1859.878906 1539.429688 1858.679688 1534.75 C 1857.46875 1530.121094 1857.03125 1526.210938 1857.359375 1523.070312 C 1857.691406 1519.929688 1858.75 1517.769531 1860.539062 1516.640625 C 1862.328125 1515.46875 1864.699219 1515.429688 1867.691406 1516.460938 C 1870.691406 1517.441406 1874.050781 1519.488281 1877.78125 1522.519531 C 1881.5 1525.550781 1885.300781 1529.351562 1889.199219 1533.949219 C 1893.078125 1538.511719 1896.761719 1543.519531 1900.269531 1548.960938 "/>
<path fill-rule="nonzero" fill="rgb(90.234375%, 76.5625%, 8.616638%)" fill-opacity="1" d="M 745.6875 1378.859375 L 1020.011719 1378.859375 C 1021.539062 1378.859375 1022.890625 1379.410156 1023.988281 1380.5 C 1025.089844 1381.628906 1025.628906 1382.949219 1025.628906 1384.519531 L 1025.628906 1565.171875 C 1025.628906 1566.738281 1025.089844 1568.058594 1023.988281 1569.148438 C 1022.890625 1570.28125 1021.539062 1570.828125 1020.011719 1570.828125 L 745.6875 1570.828125 C 744.121094 1570.828125 742.804688 1570.28125 741.710938 1569.148438 C 740.613281 1568.058594 740.066406 1566.738281 740.066406 1565.171875 L 740.066406 1384.519531 C 740.066406 1382.949219 740.613281 1381.628906 741.710938 1380.5 C 742.804688 1379.410156 744.121094 1378.859375 745.6875 1378.859375 "/>
<path fill-rule="nonzero" fill="rgb(72.851562%, 61.914062%, 7.054138%)" fill-opacity="1" d="M 721.953125 1343.761719 L 1035.96875 1343.761719 C 1037.539062 1343.761719 1038.851562 1344.308594 1039.949219 1345.410156 C 1041.078125 1346.5 1041.628906 1347.859375 1041.628906 1349.390625 L 1041.628906 1400.300781 C 1041.628906 1401.828125 1041.078125 1403.179688 1039.949219 1404.28125 C 1038.851562 1405.371094 1037.539062 1405.921875 1035.96875 1405.921875 L 721.953125 1405.921875 C 720.382812 1405.921875 719.066406 1405.371094 717.9375 1404.28125 C 716.839844 1403.179688 716.292969 1401.828125 716.292969 1400.300781 L 716.292969 1349.390625 C 716.292969 1347.859375 716.839844 1346.5 717.9375 1345.410156 C 719.066406 1344.308594 720.382812 1343.761719 721.953125 1343.761719 "/>
<path fill-rule="nonzero" fill="rgb(100%, 100%, 100%)" fill-opacity="1" d="M 824.714844 1405.949219 L 940.988281 1405.949219 L 940.988281 1438.558594 L 824.714844 1438.558594 L 824.714844 1405.949219 "/>
</svg>
